<mxfile host="app.diagrams.net" modified="2022-01-19T22:34:11.276Z" agent="5.0 (X11; Linux x86_64) AppleWebKit/537.36 (KHTML, like Gecko) Chrome/97.0.4692.71 Safari/537.36" etag="55nO69qmtx4A9qcJ2lyT" version="16.4.2" type="github">
  <diagram id="c5R831AqqfrIpXG2PCgs" name="Page-1">
    <mxGraphModel dx="425" dy="227" grid="1" gridSize="10" guides="1" tooltips="1" connect="1" arrows="1" fold="1" page="1" pageScale="1" pageWidth="850" pageHeight="1100" math="0" shadow="0">
      <root>
        <mxCell id="0" />
        <mxCell id="1" parent="0" />
        <mxCell id="5vDUCy0VN2oXL1DsV0cr-3" value="&lt;font data-font-src=&quot;https://fonts.googleapis.com/css?family=Alice&quot; face=&quot;Alice&quot;&gt;&lt;font data-font-src=&quot;https://www.fontsquirrel.com/fonts/sf-cartoonist-hand&quot;&gt;Your Pull Request&lt;/font&gt;&lt;br&gt;&lt;font color=&quot;#ff0303&quot;&gt;(master/PR/matlab)&lt;/font&gt;&lt;/font&gt;" style="rounded=0;whiteSpace=wrap;html=1;fillColor=#ffecae;strokeColor=none;shadow=1;" vertex="1" parent="1">
          <mxGeometry x="50" y="130" width="120" height="40" as="geometry" />
        </mxCell>
        <mxCell id="5vDUCy0VN2oXL1DsV0cr-4" value="&lt;span data-lucid-type=&quot;application/vnd.lucid.text&quot; data-lucid-content=&quot;{&amp;#34;t&amp;#34;:&amp;#34;Does Pass all tests?&amp;#34;,&amp;#34;m&amp;#34;:[{&amp;#34;s&amp;#34;:0,&amp;#34;n&amp;#34;:&amp;#34;a&amp;#34;,&amp;#34;v&amp;#34;:&amp;#34;center&amp;#34;},{&amp;#34;s&amp;#34;:0,&amp;#34;n&amp;#34;:&amp;#34;c&amp;#34;,&amp;#34;v&amp;#34;:&amp;#34;333333ff&amp;#34;,&amp;#34;e&amp;#34;:20},{&amp;#34;s&amp;#34;:0,&amp;#34;n&amp;#34;:&amp;#34;f&amp;#34;,&amp;#34;v&amp;#34;:&amp;#34;SF Cartoonist Hand&amp;#34;,&amp;#34;e&amp;#34;:20},{&amp;#34;s&amp;#34;:0,&amp;#34;n&amp;#34;:&amp;#34;fc&amp;#34;,&amp;#34;v&amp;#34;:&amp;#34;Regular&amp;#34;,&amp;#34;e&amp;#34;:20},{&amp;#34;s&amp;#34;:0,&amp;#34;n&amp;#34;:&amp;#34;fid&amp;#34;,&amp;#34;v&amp;#34;:1209,&amp;#34;e&amp;#34;:20},{&amp;#34;s&amp;#34;:0,&amp;#34;n&amp;#34;:&amp;#34;s&amp;#34;,&amp;#34;v&amp;#34;:35.55555555555554,&amp;#34;e&amp;#34;:20}]}&quot;&gt;&lt;span style=&quot;color: rgb(51 , 51 , 51)&quot;&gt;&lt;font face=&quot;Alice&quot; data-font-src=&quot;https://fonts.googleapis.com/css?family=Alice&quot; style=&quot;font-size: 12px&quot;&gt;Does Pass &lt;br&gt;all tests?&lt;/font&gt;&lt;/span&gt;&lt;/span&gt;" style="rhombus;whiteSpace=wrap;html=1;fontFamily=SF_Cartoonist_Hand;fontSource=https%3A%2F%2Fwww.fontsquirrel.com%2Ffonts%2Fsf-cartoonist-hand;fontColor=#FF0303;strokeColor=none;fillColor=#fcc44c;gradientColor=none;shadow=1;rounded=1;" vertex="1" parent="1">
          <mxGeometry x="200" y="100" width="120" height="90" as="geometry" />
        </mxCell>
      </root>
    </mxGraphModel>
  </diagram>
</mxfile>
